<svg fill="none" height="25" viewBox="0 0 24 24" width="25" xmlns="http://www.w3.org/2000/svg"><g clip-rule="evenodd" fill="rgb(0,0,0)" fill-rule="evenodd"><path d="m5.5 4c0-1.38071 1.11929-2.5 2.5-2.5h8c1.3807 0 2.5 1.11929 2.5 2.5v16c0 1.3807-1.1193 2.5-2.5 2.5h-8c-1.38071 0-2.5-1.1193-2.5-2.5zm2.5-1.5c-.82843 0-1.5.67157-1.5 1.5v16c0 .8284.67157 1.5 1.5 1.5h8c.8284 0 1.5-.6716 1.5-1.5v-16c0-.82843-.6716-1.5-1.5-1.5z"/><path d="m8.5 2c0-.27614.22386-.5.5-.5h6c.2761 0 .5.22386.5.5v1c0 .82843-.6716 1.5-1.5 1.5h-4c-.82843 0-1.5-.67157-1.5-1.5zm1 .5v.5c0 .27614.22386.5.5.5h4c.2761 0 .5-.22386.5-.5v-.5z"/></g></svg>